<svg height="479.744pt" viewBox="0 0 479.744 479.744" width="479.744pt" xmlns="http://www.w3.org/2000/svg" xmlns:xlink="http://www.w3.org/1999/xlink"><linearGradient id="a"><stop offset="0" stop-color="#fff33b"/><stop offset=".014" stop-color="#fee72e"/><stop offset=".042" stop-color="#fed51b"/><stop offset=".07" stop-color="#fdca10"/><stop offset=".1" stop-color="#fdc70c"/><stop offset=".4" stop-color="#f3903f"/><stop offset=".8" stop-color="#ed683c"/><stop offset="1" stop-color="#e93e3a"/></linearGradient><linearGradient id="b" gradientUnits="userSpaceOnUse" x1="239.74619" x2="239.74619" xlink:href="#a" y1="-23.999967" y2="504.544033"/><linearGradient id="c" gradientUnits="userSpaceOnUse" x1="79.74619" x2="79.74619" xlink:href="#a" y1="-23.999967" y2="504.544033"/><linearGradient id="d" gradientUnits="userSpaceOnUse" x1="55.74619" x2="55.74619" xlink:href="#a" y1="-23.999967" y2="504.544033"/><linearGradient id="e" gradientUnits="userSpaceOnUse" x1="143.74619" x2="143.74619" xlink:href="#a" y1="-23.999967" y2="504.544033"/><linearGradient id="f" gradientUnits="userSpaceOnUse" x1="111.74619" x2="111.74619" xlink:href="#a" y1="-23.999967" y2="504.544033"/><linearGradient id="g" gradientUnits="userSpaceOnUse" x1="215.74619" x2="215.74619" xlink:href="#a" y1="-23.999967" y2="504.544033"/><linearGradient id="h" gradientUnits="userSpaceOnUse" x1="383.74619" x2="383.74619" xlink:href="#a" y1="-23.999967" y2="504.544033"/><path d="m239.746094 0c-67.53125-.0273438-131.9375 28.46875-177.335938 78.464844-.375.34375-.710937.722656-1.007812 1.136718-75.660156 84.25-82.097656 209.941407-15.433594 301.480469 66.664062 91.539063 188.261719 123.988281 291.667969 77.835938 103.410156-46.15625 160.453125-158.339844 136.828125-269.085938-23.621094-110.75-121.480469-189.8906248-234.71875-189.832031zm0 16c63.921875-.101562 124.835937 27.15625 167.351562 74.886719 42.519532 47.734375 62.582032 111.378906 55.121094 174.867187l-19.535156 16.0625c-11.203125 9.183594-17.890625 14.511719-26.792969 14.183594-2.972656-.089844-5.871094-.945312-8.417969-2.480469-4.359375-2.164062-8.914062-3.921875-13.597656-5.246093-8.394531-2.34375-30.695312-8.570313-46.226562.886718-15.09375 9.113282-17.078126 27.945313-19.820313 54.015625-1.148437 11.964844-1.597656 23.984375-1.347656 36 .082031 11.289063.136719 20.191407-2.832031 21.976563-2.4375 1.230468-5.316407 1.230468-7.757813 0-2.6875-1.601563-3.609375-6.96875-4.234375-10.558594-5.070312-23.25-17.140625-44.390625-34.582031-60.578125-5.988281-5.160156-12.734375-9.371094-20-12.480469-6.953125-3.246094-8.664063-4.335937-9.519531-7.558594-.546876-2.773437-.371094-5.636718.519531-8.320312 1.886719-5.722656 1.464843-11.957031-1.175781-17.375-4.15625-6.71875-11.167969-11.15625-19.015626-12.042969-5.449218-.90625-10.601562-3.097656-15.03125-6.398437-7.472656-7.308594-12.144531-17.003906-13.203124-27.398438-1.5-7.175781-1.5-14.585937 0-21.761718 1.746093-8.644532 1.746093-17.546876 0-26.191407-2.179688-13.75-8.636719-26.460937-18.445313-36.335937-10.042969-8.539063-23.089844-12.691406-36.21875-11.527344-10.222656.40625-20.402344-1.585938-29.71875-5.824219-21.144531-10.402343-30.953125-32.296875-36.191406-44-.9375-2.152343-1.601563-4.144531-2.351563-6.183593 42.238282-45.070313 101.253906-70.632813 163.023438-70.617188zm0 448c-86.097656.070312-164.601563-49.253906-201.90625-126.851562-37.300782-77.597657-26.785156-169.710938 27.042968-236.910157 6.191407 13.824219 17.597657 38.3125 43.351563 50.945313 11.367187 5.242187 23.800781 7.765625 36.3125 7.375 10.589844.265625 18.238281.441406 25.816406 7.351562 7.277344 7.601563 12.011719 17.273438 13.550781 27.683594 1.355469 6.78125 1.316407 13.769531-.121093 20.535156-1.8125 9.074219-1.769531 18.421875.121093 27.480469 1.707032 14.046875 8.371094 27.023437 18.792969 36.597656 6.25 4.8125 13.542969 8.089844 21.296875 9.5625 5.933594 1.445313 7.6875 2.109375 8.671875 4 .75 1.414063.605469 2.511719-.257812 6.277344-1.519531 5.207031-1.660157 10.722656-.40625 16 2.722656 8.636719 9.546875 15.359375 18.222656 17.953125 5.882813 2.484375 11.355469 5.851562 16.222656 9.984375 14.871094 13.949219 25.160157 32.082031 29.511719 52 .628906 8.304687 4.875 15.910156 11.617188 20.800781 7.515624 4.328125 16.769531 4.328125 24.289062 0 10.765625-6.472656 10.6875-18.761718 10.566406-35.777344-.246094-11.429687.175782-22.859374 1.257813-34.238281 2.488281-23.617187 4.269531-37.210937 12.207031-42 9.601562-5.839843 27.679688-.800781 33.671875.871094 3.792969 1.066406 7.476563 2.492187 11 4.253906 4.59375 2.566407 9.742187 3.972657 15 4.105469h.800781c14.6875 0 25.261719-8.65625 36.457032-17.816406l5.269531-4.328125c-23.367188 101.804687-113.90625 174.011719-218.359375 174.144531zm0 0" fill="url(#b)"/><path d="m103.746094 184c0-13.253906-10.746094-24-24-24s-24 10.746094-24 24 10.746094 24 24 24 24-10.746094 24-24zm-24 8c-4.417969 0-8-3.582031-8-8s3.582031-8 8-8c4.417968 0 8 3.582031 8 8s-3.582032 8-8 8zm0 0" fill="url(#c)"/><path d="m55.746094 240c-13.253906 0-24 10.746094-24 24s10.746094 24 24 24 24-10.746094 24-24-10.746094-24-24-24zm0 32c-4.417969 0-8-3.582031-8-8s3.582031-8 8-8c4.417968 0 8 3.582031 8 8s-3.582032 8-8 8zm0 0" fill="url(#d)"/><path d="m143.746094 272c-13.253906 0-24 10.746094-24 24s10.746094 24 24 24 24-10.746094 24-24-10.746094-24-24-24zm0 32c-4.417969 0-8-3.582031-8-8s3.582031-8 8-8c4.417968 0 8 3.582031 8 8s-3.582032 8-8 8zm0 0" fill="url(#e)"/><path d="m111.746094 344c-13.253906 0-24 10.746094-24 24s10.746094 24 24 24 24-10.746094 24-24-10.746094-24-24-24zm0 32c-4.417969 0-8-3.582031-8-8s3.582031-8 8-8c4.417968 0 8 3.582031 8 8s-3.582032 8-8 8zm0 0" fill="url(#f)"/><path d="m215.746094 360c-13.253906 0-24 10.746094-24 24s10.746094 24 24 24 24-10.746094 24-24-10.746094-24-24-24zm0 32c-4.417969 0-8-3.582031-8-8s3.582031-8 8-8c4.417968 0 8 3.582031 8 8s-3.582032 8-8 8zm0 0" fill="url(#g)"/><path d="m383.746094 328c-13.253906 0-24 10.746094-24 24s10.746094 24 24 24 24-10.746094 24-24-10.746094-24-24-24zm0 32c-4.417969 0-8-3.582031-8-8s3.582031-8 8-8c4.417968 0 8 3.582031 8 8s-3.582032 8-8 8zm0 0" fill="url(#h)"/></svg>