<?xml version="1.0" encoding="UTF-8"?>
<svg xmlns="http://www.w3.org/2000/svg" xmlns:xlink="http://www.w3.org/1999/xlink" viewBox="0 0 64 64" version="1.1" width="64px" height="64px">
<g id="surface1">
<path style=" fill:#FFEB9B;" d="M 15 3 L 49 3 C 50.105469 3 51 3.894531 51 5 L 51 53 C 51 56.3125 48.3125 59 45 59 L 15 59 C 13.894531 59 13 58.105469 13 57 L 13 5 C 13 3.894531 13.894531 3 15 3 Z "/>
<path style=" fill:#BBDEF9;" d="M 45 9 L 20 9 C 19.449219 9 19 9.449219 19 10 L 19 30 C 19 30.550781 19.449219 31 20 31 L 41 31 C 43.210938 31 45 29.210938 45 27 Z "/>
<path style=" fill:#DEF0FF;" d="M 45 16.390625 L 30.390625 31 L 41 31 C 43.210938 31 45 29.210938 45 27 Z "/>
<path style=" fill:#DEF0FF;" d="M 45 9 L 42 9 L 20 31 L 26 31 L 45 12 Z "/>
<path style=" fill:#DEF0FF;" d="M 36 9 L 19 26 L 19 29 L 39 9 Z "/>
<path style=" fill:#FFFFFF;" d="M 38.421875 15 L 39.269531 16.558594 L 40.839844 17.421875 L 39.269531 18.269531 L 38.421875 19.839844 L 37.558594 18.269531 L 36 17.421875 L 37.558594 16.558594 Z "/>
<path style=" fill:#ED7899;" d="M 27 39 L 27 36 C 27 35.449219 26.550781 35 26 35 L 24 35 C 23.449219 35 23 35.449219 23 36 L 23 39 L 20 39 C 19.449219 39 19 39.449219 19 40 L 19 42 C 19 42.550781 19.449219 43 20 43 L 23 43 L 23 46 C 23 46.550781 23.449219 47 24 47 L 26 47 C 26.550781 47 27 46.550781 27 46 L 27 43 L 30 43 C 30.550781 43 31 42.550781 31 42 L 31 40 C 31 39.449219 30.550781 39 30 39 Z "/>
<path style=" fill:#85CBF8;" d="M 46 38.5 C 46 40.433594 44.433594 42 42.5 42 C 40.566406 42 39 40.433594 39 38.5 C 39 36.566406 40.566406 35 42.5 35 C 44.433594 35 46 36.566406 46 38.5 Z "/>
<path style=" fill:#97E0BB;" d="M 39 46 C 39 47.105469 38.105469 48 37 48 C 35.894531 48 35 47.105469 35 46 C 35 44.894531 35.894531 44 37 44 C 38.105469 44 39 44.894531 39 46 Z "/>
<path style=" fill:#F6D397;" d="M 17 52 L 51 52 C 51 55.867188 47.867188 59 44 59 L 13 59 L 13 56 C 13 53.789063 14.789063 52 17 52 Z "/>
<path style=" fill:#8D6C9F;" d="M 19 32 L 41 32 C 43.761719 32 46 29.761719 46 27 L 46 9 C 46 8.449219 45.550781 8 45 8 L 19 8 C 18.449219 8 18 8.449219 18 9 L 18 31 C 18 31.550781 18.449219 32 19 32 Z M 20 10 L 44 10 L 44 27 C 44 28.65625 42.65625 30 41 30 L 20 30 Z "/>
<path style=" fill:#8D6C9F;" d="M 20 44 L 22 44 L 22 46 C 22 47.105469 22.894531 48 24 48 L 26 48 C 27.105469 48 28 47.105469 28 46 L 28 44 L 30 44 C 31.105469 44 32 43.105469 32 42 L 32 40 C 32 38.894531 31.105469 38 30 38 L 28 38 L 28 36 C 28 34.894531 27.105469 34 26 34 L 24 34 C 22.894531 34 22 34.894531 22 36 L 22 38 L 20 38 C 18.894531 38 18 38.894531 18 40 L 18 42 C 18 43.105469 18.894531 44 20 44 Z M 20 40 L 23 40 C 23.550781 40 24 39.550781 24 39 L 24 36 L 26 36 L 26 39 C 26 39.550781 26.449219 40 27 40 L 30 40 L 30 42 L 27 42 C 26.449219 42 26 42.449219 26 43 L 26 46 L 24 46 L 24 43 C 24 42.449219 23.550781 42 23 42 L 20 42 Z "/>
<path style=" fill:#8D6C9F;" d="M 49 2 L 15 2 C 13.34375 2 12 3.34375 12 5 L 12 57 C 12 58.65625 13.34375 60 15 60 L 45 60 C 48.867188 60 52 56.867188 52 53 L 52 5 C 52 3.34375 50.65625 2 49 2 Z M 50 53 C 50 55.761719 47.761719 58 45 58 L 15 58 C 14.449219 58 14 57.550781 14 57 L 14 5 C 14 4.449219 14.449219 4 15 4 L 49 4 C 49.550781 4 50 4.449219 50 5 Z "/>
<path style=" fill:#8D6C9F;" d="M 24 18 C 23.449219 18 23 18.449219 23 19 L 23 21 C 23 21.550781 23.449219 22 24 22 C 24.550781 22 25 21.550781 25 21 L 25 19 C 25 18.449219 24.550781 18 24 18 Z "/>
<path style=" fill:#8D6C9F;" d="M 29 18 C 28.449219 18 28 18.449219 28 19 L 28 21 C 28 21.550781 28.449219 22 29 22 C 29.550781 22 30 21.550781 30 21 L 30 19 C 30 18.449219 29.550781 18 29 18 Z "/>
<path style=" fill:#8D6C9F;" d="M 34 18 C 33.449219 18 33 18.449219 33 19 L 33 21 C 33 21.550781 33.449219 22 34 22 C 34.550781 22 35 21.550781 35 21 L 35 19 C 35 18.449219 34.550781 18 34 18 Z "/>
<path style=" fill:#8D6C9F;" d="M 39 18 C 38.449219 18 38 18.449219 38 19 L 38 21 C 38 21.550781 38.449219 22 39 22 C 39.550781 22 40 21.550781 40 21 L 40 19 C 40 18.449219 39.550781 18 39 18 Z "/>
<path style=" fill:#8D6C9F;" d="M 42.5 34 C 40.015625 34 38 36.015625 38 38.5 C 38 40.984375 40.015625 43 42.5 43 C 44.984375 43 47 40.984375 47 38.5 C 47 36.015625 44.984375 34 42.5 34 Z M 42.5 41 C 41.121094 41 40 39.878906 40 38.5 C 40 37.121094 41.121094 36 42.5 36 C 43.878906 36 45 37.121094 45 38.5 C 45 39.878906 43.878906 41 42.5 41 Z "/>
<path style=" fill:#8D6C9F;" d="M 37 43 C 35.34375 43 34 44.34375 34 46 C 34 47.65625 35.34375 49 37 49 C 38.65625 49 40 47.65625 40 46 C 40 44.34375 38.65625 43 37 43 Z M 37 47 C 36.449219 47 36 46.550781 36 46 C 36 45.449219 36.449219 45 37 45 C 37.550781 45 38 45.449219 38 46 C 38 46.550781 37.550781 47 37 47 Z "/>
<path style=" fill:#8D6C9F;" d="M 38 54 L 17 54 C 16.449219 54 16 54.449219 16 55 C 16 55.550781 16.449219 56 17 56 L 38 56 C 38.550781 56 39 55.550781 39 55 C 39 54.449219 38.550781 54 38 54 Z "/>
<path style=" fill:#8D6C9F;" d="M 46 54 L 42 54 C 41.449219 54 41 54.449219 41 55 C 41 55.550781 41.449219 56 42 56 L 46 56 C 46.550781 56 47 55.550781 47 55 C 47 54.449219 46.550781 54 46 54 Z "/>
<path style=" fill:#FFFFFF;" d="M 28.648438 24 L 29.230469 25.070313 L 30.300781 25.648438 L 29.230469 26.230469 L 28.648438 27.300781 L 28.070313 26.230469 L 27 25.648438 L 28.070313 25.070313 Z "/>
<path style=" fill:#FFFFFF;" d="M 28.5 11 L 29.738281 13.261719 L 32 14.5 L 29.738281 15.738281 L 28.5 18 L 27.261719 15.738281 L 25 14.5 L 27.261719 13.261719 Z "/>
</g>
</svg>
